# xmcd CD database file
#
# Track frame offsets:
#	150
#	15513
#	33425
#	43128
#	62457
#	76290
#	89248
#	101822
#	121355
#	132473
#	146741
#	163482
#	179982
#	193206
#	207049
#	221836
#	236149
#	254878
#	266464
#	287109
#	302700
#	317711
#	329877
#
# Disc length: 4624 seconds
#
# Revision: 0
# Processed by: cddbd v1.5.1PL2 Copyright (c) Steve Scherf et al.
# Submitted via: CDex 1.50
#
DISCID=7e120e17
DTITLE=30 let ceske country - CD 3
DYEAR=1900
DGENRE=Country
TTITLE0=Greenhorns - Sedm spanelskych andelu
TTITLE1=Honza Vycital - Battledress
TTITLE2=Honza Vycital - Redback pod prkynkem v hajzliku
TTITLE3=K. Cernoch, F. Brabec - Vic nez pritel
TTITLE4=Ladislav Vodicka - Tom Dooley
TTITLE5=M. Tucny, Z. Rytir - Vcera jsem te nevidel
TTITLE6=Michal Tucny - Ja budu zit naveky
TTITLE7=Michal Tucny - Medicinman
TTITLE8=Mirek Cerny - Najednou
TTITLE9=Mirek Hoffmann - U silnice E55
TTITLE10=P. Bobek, R. Krestan - Musim se sam sobe smat
TTITLE11=P. Zalman Lohonka - Tulacka ukolebavka
TTITLE12=Pavel Bobek - Country Boy
TTITLE13=Pavel Brumer - Mym hrdinou byl vzdycky cowboy
TTITLE14=Pavlina Jisova - Rikali o nas, ze nejsme
TTITLE15=Petr Kocman - Asfaltovy blues
TTITLE16=Projekti - Zahrada Ticha
TTITLE17=Rangers - Dej boze muj
TTITLE18=Spiritual Kvintet - Uz nechci se vdat
TTITLE19=Tomas Linka - Tequila Sheila
TTITLE20=Vera Martinova - Az na vrcholky hor
TTITLE21=Vrata Vyskocil - Jedu dal
TTITLE22=Wabi Danek - Ranni dest
EXTD=
EXTT0=
EXTT1=
EXTT2=
EXTT3=
EXTT4=
EXTT5=
EXTT6=
EXTT7=
EXTT8=
EXTT9=
EXTT10=
EXTT11=
EXTT12=
EXTT13=
EXTT14=
EXTT15=
EXTT16=
EXTT17=
EXTT18=
EXTT19=
EXTT20=
EXTT21=
EXTT22=
PLAYORDER=
